<svg xmlns="http://www.w3.org/2000/svg" width="255" height="22" fill="none"><path fill="#231610" d="M0 0h10.74l10.667 10.922V0H23.6v21.844h-8.585L2.228 7.302v14.542H0V0ZM34.795 0h10.667l11.325 21.844H42.978l-3.836-7.24h-8.036l-3.288 7.24H25.15L34.795 0Zm3.325 12.7-3.325-6.334-2.886 6.335h6.21ZM59.885 1.841h-9.607V0h32.038v1.841H72.67v20.003H59.885V1.841ZM96.743 22c-4.408 0-7.562-.551-9.461-1.654-1.876-1.102-2.813-2.788-2.813-5.055V0h13.955v15.29c0 1.478.377 2.56 1.132 3.246.78.666 1.803.999 3.069.999 2.825 0 4.238-1.415 4.238-4.244V0h2.155v15.29c0 1.77-.438 3.142-1.315 4.12-.877.957-2.192 1.633-3.946 2.028-1.753.375-4.091.562-7.014.562ZM111.412 0h24.44c1.193 0 2.289.26 3.288.78 1.022.5 1.826 1.186 2.411 2.06.608.853.913 1.789.913 2.808 0 1.352-.487 2.58-1.461 3.683-.975 1.102-2.204 1.81-3.69 2.122 1.315.312 2.387.904 3.215 1.778.852.874 1.278 1.862 1.278 2.965v5.648h-12.238v-6.772c0-.665-.146-1.185-.438-1.56-.341-.437-.731-.76-1.169-.967a6.371 6.371 0 0 0-1.644-.5 14.364 14.364 0 0 0-1.79-.187l-.986-.031v10.017h-12.129V0Zm13.407 10.017c.877 0 1.681-.177 2.411-.53.755-.375 1.34-.874 1.754-1.498.438-.645.657-1.332.657-2.06 0-.749-.219-1.435-.657-2.06-.414-.644-.999-1.154-1.754-1.529a5.205 5.205 0 0 0-2.411-.561h-1.278v8.27l1.278-.032ZM153.414 0h10.667l11.325 21.844h-13.809l-3.836-7.24h-8.037l-3.288 7.24h-2.666L153.414 0Zm3.324 12.7-3.324-6.334-2.886 6.335h6.21ZM177.214 0h12.823v19.972h13.882v1.872h-26.705V0ZM206.37 0h12.822v19.972h13.882v1.872H206.37V0ZM235.419 11.827 227.492 0h14.32l5.261 8.925L252.187 0H255l-6.795 11.827v10.017h-12.786V11.827Z"/></svg>