<svg width="255" height="22" viewBox="0 0 255 22" fill="none" xmlns="http://www.w3.org/2000/svg">
<path d="M0 0H10.7402L21.4074 10.922V0H23.5993V21.844H15.0144L2.22842 7.30213V21.844H0V0Z" fill="#231610"/>
<path d="M34.7953 0H45.4625L56.7872 21.844H42.9783L39.1425 14.6043H31.1056L27.8178 21.844H25.151L34.7953 0ZM38.1197 12.7007L34.7953 6.36596L31.9093 12.7007H38.1197Z" fill="#231610"/>
<path d="M59.8852 1.84114H50.2775V0H82.3155V1.84114H72.6712V21.844H59.8852V1.84114Z" fill="#231610"/>
<path d="M96.7434 22C92.3353 22 89.1814 21.4487 87.2818 20.3461C85.4065 19.2435 84.4689 17.5584 84.4689 15.2908V0H98.4239V15.2908C98.4239 16.7678 98.8014 17.8496 99.5563 18.5362C100.336 19.2019 101.359 19.5348 102.625 19.5348C105.45 19.5348 106.863 18.1201 106.863 15.2908V0H109.018V15.2908C109.018 17.0591 108.58 18.4322 107.703 19.4099C106.826 20.3669 105.511 21.043 103.757 21.4383C102.004 21.8128 99.6659 22 96.7434 22Z" fill="#231610"/>
<path d="M111.412 0H135.852C137.045 0 138.141 0.260048 139.14 0.780143C140.162 1.27943 140.966 1.96596 141.551 2.83972C142.159 3.69267 142.464 4.62884 142.464 5.64823C142.464 7.00047 141.977 8.2279 141.003 9.3305C140.028 10.4331 138.799 11.1404 137.313 11.4525C138.628 11.7645 139.7 12.3574 140.528 13.2312C141.38 14.105 141.806 15.0931 141.806 16.1957V21.844H129.568V15.0723C129.568 14.4066 129.422 13.8865 129.13 13.5121C128.789 13.0752 128.399 12.7527 127.961 12.5447C127.474 12.3158 126.926 12.1494 126.317 12.0454C125.684 11.9414 125.087 11.879 124.527 11.8582L123.541 11.827V21.844H111.412V0ZM124.819 10.017C125.696 10.017 126.5 9.84019 127.23 9.48652C127.985 9.11206 128.57 8.61277 128.984 7.98865C129.422 7.34374 129.641 6.65721 129.641 5.92908C129.641 5.18014 129.422 4.49362 128.984 3.8695C128.57 3.22459 127.985 2.71489 127.23 2.34043C126.5 1.96596 125.696 1.77872 124.819 1.77872H123.541V10.0482L124.819 10.017Z" fill="#231610"/>
<path d="M153.414 0H164.081L175.406 21.844H161.597L157.761 14.6043H149.724L146.436 21.844H143.77L153.414 0ZM156.738 12.7007L153.414 6.36596L150.528 12.7007H156.738Z" fill="#231610"/>
<path d="M177.214 0H190.037V19.9716H203.919V21.844H177.214V0Z" fill="#231610"/>
<path d="M206.37 0H219.192V19.9716H233.074V21.844H206.37V0Z" fill="#231610"/>
<path d="M235.419 11.827L227.492 0H241.812L247.073 8.92482L252.187 0H255L248.205 11.827V21.844H235.419V11.827Z" fill="#231610"/>
</svg>
