<svg width="27" height="27" fill="none" xmlns="http://www.w3.org/2000/svg"><path fill-rule="evenodd" clip-rule="evenodd" d="M19.753 20.399c-1.963 1.432-4.432 2.285-7.114 2.285-6.398 0-11.584-4.854-11.584-10.842S6.24 1 12.639 1c6.397 0 11.584 4.854 11.584 10.842 0 3.099-1.39 5.894-3.617 7.87l4.449 4.58-.832.708-4.47-4.601zm3.611-8.557c0 5.545-4.802 10.04-10.725 10.04-5.924 0-10.726-4.495-10.726-10.04 0-5.544 4.802-10.039 10.726-10.039 5.923 0 10.725 4.495 10.725 10.04z" fill="#CEC7B9" stroke="#CEC7B9" stroke-width="2"/></svg>